<svg xmlns="http://www.w3.org/2000/svg" viewBox="0 0 100 100" width="100" height="100">
  <rect width="100" height="100" rx="22" fill="#fbf1dc"/>
  <g transform="translate(6 4) scale(0.9)" fill="#b5763a"><path d="M73.917,15.204c0.751-0.429,1.344-1.19,0.831-2.062c-1.017-1.73-3.986-1.71-5.703-1.75c-1.022-0.023-2.058,0.002-3.073-0.135c-0.987-0.134-1.846-0.519-2.718-0.985c-0.46-0.246-2.028-1.285-2.36-0.373c-0.192,0.528,1.568,1.615,0.149,1.307c-0.95-0.207-1.351,0.741-0.688,1.396c0.719,0.709,1.882,0.797,2.561,1.526c1.262,1.354-3.612,2.218-3.728,3.247c-0.046,0.399,2.635-0.005,3.124,0.461c0.651,0.624-0.062,2.434-0.241,3.097c-0.441,1.644-1.017,3.178-1.785,4.694c-1.878,3.699-4.021,7.284-6.077,10.889c-1.998,3.504-4.007,7.23-6.763,10.208c-1.255,1.355-2.73,2.434-4.466,3.079c-1.745,0.648-3.593,1.017-5.374,1.552c-2.026,0.607-4.153,1.273-5.898,2.506c-1.533,1.082-2.648,2.661-3.524,4.3c-1.099,2.056-1.39,4.321-1.816,6.581c-0.375,1.999-0.917,3.97-1.074,6.003c-0.074,0.951-0.318,1.707-0.879,2.482c-0.251,0.346-0.509,0.716-0.502,1.162c0.009,0.562,0.236,1.084,0.117,1.651c-0.042,0.206-0.783,1.652-0.398,1.619c0.761-0.065,1.655-0.783,2.204-1.264c1.735-1.519,0.479-3.927,0.401-5.862c-0.041-1.039,0.143-2.063,0.427-3.061c0.28-0.984,0.594-2.126,1.182-2.978c0.402-0.586,0.479,0.232,0.501,0.548c0.062,0.914,0.049,1.833,0.076,2.747c0.071,2.372,0.403,4.7,0.711,7.05c0.222,1.684,0.399,3.378,0.376,5.078c-0.017,1.254-0.117,2.505-0.134,3.758c-0.021,1.44,0.074,2.88,0.349,4.296c0.07,0.362,0.15,0.722,0.242,1.078c0.109,0.432,0.122,1.137,0.608,1.137c0.855,0,1.71,0,2.564,0c-0.907-3.823-1.379-7.621-0.954-11.541c0.438-4.042,1.589-8.281,4.637-11.159c2.199-2.075,6.264-4.005,8.129-0.526c1.598,2.981,1.619,6.781,1.89,10.073c0.175,2.129,0.404,4.247,0.694,6.361c0.191,1.393,0.379,2.785,0.521,4.182c0.079,0.772,0.144,1.545,0.187,2.32c-0.082,0.291,0.022,0.388,0.31,0.29c0.197,0,0.394,0,0.591,0c0.492,0,0.983,0,1.475,0c-0.408-4.647-0.597-9.347-0.097-13.993c0.464-4.291,1.489-8.474,3.052-12.495c0.742-1.909,1.482-3.813,1.844-5.84c0.276-1.547,0.507-3.091,0.91-4.614c0.877-3.315,2.124-6.538,3.321-9.747c1.75-4.69,3.584-9.351,5.229-14.08c0.822-2.365,1.538-4.762,2.234-7.167C71.489,18.545,72.029,16.356,73.917,15.204z"/></g>
</svg>
